<svg xmlns="http://www.w3.org/2000/svg" viewBox="0 0 800 420" font-family="Segoe UI, sans-serif">
<rect width="800" height="420" fill="#ffffff" rx="8"/>
<text x="64" y="30" fill="#1f2328" font-size="17" font-weight="700">★ Star History — timoncool/VoxCPM2_portable</text>
<text x="776" y="30" fill="#1f2328" font-size="14" text-anchor="end">76 stars · updated 2026-10-05</text>
<line x1="64" y1="364.0" x2="776" y2="364.0" stroke="#d1d9e0" stroke-width="1"/><text x="54" y="368.0" fill="#1f2328" font-size="13" text-anchor="end">0</text><line x1="64" y1="285.0" x2="776" y2="285.0" stroke="#d1d9e0" stroke-width="1"/><text x="54" y="289.0" fill="#1f2328" font-size="13" text-anchor="end">19</text><line x1="64" y1="206.0" x2="776" y2="206.0" stroke="#d1d9e0" stroke-width="1"/><text x="54" y="210.0" fill="#1f2328" font-size="13" text-anchor="end">38</text><line x1="64" y1="127.0" x2="776" y2="127.0" stroke="#d1d9e0" stroke-width="1"/><text x="54" y="131.0" fill="#1f2328" font-size="13" text-anchor="end">57</text><line x1="64" y1="48.0" x2="776" y2="48.0" stroke="#d1d9e0" stroke-width="1"/><text x="54" y="52.0" fill="#1f2328" font-size="13" text-anchor="end">76</text>
<path d="M64.0,364.0 L64.0,359.8 L68.0,355.7 L68.1,351.5 L68.1,347.4 L68.2,343.2 L68.3,339.1 L68.3,334.9 L68.6,330.7 L68.8,326.6 L68.9,322.4 L68.9,318.3 L69.0,314.1 L69.6,309.9 L69.9,305.8 L71.9,301.6 L72.7,297.5 L72.8,293.3 L74.5,289.2 L74.5,285.0 L78.1,280.8 L79.0,276.7 L80.4,272.5 L82.3,268.4 L83.3,264.2 L85.1,260.1 L86.8,255.9 L90.1,251.7 L94.9,247.6 L109.8,243.4 L111.6,239.3 L143.3,235.1 L154.4,230.9 L160.4,226.8 L168.4,222.6 L176.8,218.5 L194.0,214.3 L234.4,210.2 L234.9,206.0 L234.9,201.8 L234.9,197.7 L235.4,193.5 L235.5,189.4 L236.8,185.2 L238.6,181.1 L241.0,176.9 L241.3,172.7 L274.3,168.6 L294.6,164.4 L300.5,160.3 L302.9,156.1 L303.7,151.9 L308.6,147.8 L310.2,143.6 L310.8,139.5 L324.9,135.3 L343.5,131.2 L374.4,127.0 L394.7,122.8 L395.0,118.7 L401.3,114.5 L414.5,110.4 L416.0,106.2 L422.8,102.1 L429.6,97.9 L464.6,93.7 L501.3,89.6 L507.7,85.4 L523.2,81.3 L567.1,77.1 L575.1,72.9 L608.1,68.8 L620.9,64.6 L639.4,60.5 L686.1,56.3 L757.6,52.2 L776.0,48.0 L776.0,48.0" fill="none" stroke="#0969da" stroke-width="2.5" stroke-linejoin="round"/>
<circle cx="776.0" cy="48.0" r="4" fill="#0969da"/>
<text x="64.0" y="388" fill="#1f2328" font-size="13" text-anchor="middle">Apr 18, 2026</text><text x="301.3" y="388" fill="#1f2328" font-size="13" text-anchor="middle">Jun 13, 2026</text><text x="538.7" y="388" fill="#1f2328" font-size="13" text-anchor="middle">Aug 09, 2026</text><text x="776.0" y="388" fill="#1f2328" font-size="13" text-anchor="middle">Oct 05, 2026</text>
</svg>