<svg xmlns="http://www.w3.org/2000/svg" viewBox="0 0 800 420" font-family="Segoe UI, sans-serif">
<rect width="800" height="420" fill="#0d1117" rx="8"/>
<text x="64" y="30" fill="#e6edf3" font-size="17" font-weight="700">★ Star History — timoncool/VoxCPM2_portable</text>
<text x="776" y="30" fill="#e6edf3" font-size="14" text-anchor="end">72 stars · updated 2026-08-31</text>
<line x1="64" y1="364.0" x2="776" y2="364.0" stroke="#30363d" stroke-width="1"/><text x="54" y="368.0" fill="#e6edf3" font-size="13" text-anchor="end">0</text><line x1="64" y1="285.0" x2="776" y2="285.0" stroke="#30363d" stroke-width="1"/><text x="54" y="289.0" fill="#e6edf3" font-size="13" text-anchor="end">18</text><line x1="64" y1="206.0" x2="776" y2="206.0" stroke="#30363d" stroke-width="1"/><text x="54" y="210.0" fill="#e6edf3" font-size="13" text-anchor="end">36</text><line x1="64" y1="127.0" x2="776" y2="127.0" stroke="#30363d" stroke-width="1"/><text x="54" y="131.0" fill="#e6edf3" font-size="13" text-anchor="end">54</text><line x1="64" y1="48.0" x2="776" y2="48.0" stroke="#30363d" stroke-width="1"/><text x="54" y="52.0" fill="#e6edf3" font-size="13" text-anchor="end">72</text>
<path d="M64.0,364.0 L64.0,359.6 L69.0,355.2 L69.2,350.8 L69.2,346.4 L69.3,342.1 L69.4,337.7 L69.5,333.3 L69.7,328.9 L70.0,324.5 L70.2,320.1 L70.2,315.7 L70.4,311.3 L71.0,306.9 L71.4,302.6 L74.0,298.2 L74.9,293.8 L75.0,289.4 L77.2,285.0 L77.2,280.6 L81.7,276.2 L82.9,271.8 L84.6,267.4 L87.0,263.1 L88.3,258.7 L90.5,254.3 L92.7,249.9 L96.8,245.5 L102.9,241.1 L121.6,236.7 L123.9,232.3 L163.8,227.9 L177.8,223.6 L185.3,219.2 L195.4,214.8 L206.0,210.4 L227.6,206.0 L278.5,201.6 L279.0,197.2 L279.0,192.8 L279.1,188.4 L279.7,184.1 L279.8,179.7 L281.4,175.3 L283.7,170.9 L286.7,166.5 L287.1,162.1 L328.6,157.7 L354.2,153.3 L361.6,148.9 L364.6,144.6 L365.7,140.2 L371.8,135.8 L373.8,131.4 L374.6,127.0 L392.3,122.6 L415.7,118.2 L454.5,113.8 L480.1,109.4 L480.5,105.1 L488.5,100.7 L505.0,96.3 L506.9,91.9 L515.6,87.5 L524.1,83.1 L568.1,78.7 L614.2,74.3 L622.4,69.9 L641.9,65.6 L697.1,61.2 L707.1,56.8 L748.7,52.4 L764.8,48.0 L776.0,48.0" fill="none" stroke="#4f8ff7" stroke-width="2.5" stroke-linejoin="round"/>
<circle cx="776.0" cy="48.0" r="4" fill="#4f8ff7"/>
<text x="64.0" y="388" fill="#e6edf3" font-size="13" text-anchor="middle">Apr 18, 2026</text><text x="301.3" y="388" fill="#e6edf3" font-size="13" text-anchor="middle">Jun 02, 2026</text><text x="538.7" y="388" fill="#e6edf3" font-size="13" text-anchor="middle">Jul 17, 2026</text><text x="776.0" y="388" fill="#e6edf3" font-size="13" text-anchor="middle">Aug 31, 2026</text>
</svg>