<svg xmlns="http://www.w3.org/2000/svg" viewBox="0 0 800 420" font-family="Segoe UI, sans-serif">
<rect width="800" height="420" fill="#0d1117" rx="8"/>
<text x="64" y="30" fill="#e6edf3" font-size="17" font-weight="700">★ Star History — timoncool/VoxCPM2_portable</text>
<text x="776" y="30" fill="#e6edf3" font-size="14" text-anchor="end">77 stars · updated 2026-10-09</text>
<line x1="64" y1="364.0" x2="776" y2="364.0" stroke="#30363d" stroke-width="1"/><text x="54" y="368.0" fill="#e6edf3" font-size="13" text-anchor="end">0</text><line x1="64" y1="286.0" x2="776" y2="286.0" stroke="#30363d" stroke-width="1"/><text x="54" y="290.0" fill="#e6edf3" font-size="13" text-anchor="end">19</text><line x1="64" y1="208.1" x2="776" y2="208.1" stroke="#30363d" stroke-width="1"/><text x="54" y="212.1" fill="#e6edf3" font-size="13" text-anchor="end">38</text><line x1="64" y1="126.0" x2="776" y2="126.0" stroke="#30363d" stroke-width="1"/><text x="54" y="130.0" fill="#e6edf3" font-size="13" text-anchor="end">58</text><line x1="64" y1="48.0" x2="776" y2="48.0" stroke="#30363d" stroke-width="1"/><text x="54" y="52.0" fill="#e6edf3" font-size="13" text-anchor="end">77</text>
<path d="M64.0,364.0 L64.0,359.9 L67.9,355.8 L68.0,351.7 L68.1,347.6 L68.1,343.5 L68.2,339.4 L68.2,335.3 L68.4,331.2 L68.7,327.1 L68.8,323.0 L68.8,318.9 L68.9,314.8 L69.4,310.6 L69.8,306.5 L71.7,302.4 L72.5,298.3 L72.6,294.2 L74.2,290.1 L74.3,286.0 L77.8,281.9 L78.7,277.8 L80.0,273.7 L81.9,269.6 L82.9,265.5 L84.6,261.4 L86.3,257.3 L89.5,253.2 L94.2,249.1 L108.7,245.0 L110.5,240.9 L141.4,236.8 L152.3,232.7 L158.1,228.6 L165.9,224.5 L174.2,220.4 L190.9,216.3 L230.4,212.2 L230.8,208.1 L230.8,203.9 L230.9,199.8 L231.3,195.7 L231.4,191.6 L232.7,187.5 L234.4,183.4 L236.8,179.3 L237.1,175.2 L269.3,171.1 L289.1,167.0 L294.9,162.9 L297.2,158.8 L298.0,154.7 L302.8,150.6 L304.4,146.5 L304.9,142.4 L318.7,138.3 L336.9,134.2 L367.0,130.1 L386.9,126.0 L387.2,121.9 L393.3,117.8 L406.2,113.7 L407.6,109.6 L414.3,105.5 L421.0,101.4 L455.1,97.2 L490.9,93.1 L497.2,89.0 L512.3,84.9 L555.2,80.8 L563.0,76.7 L595.2,72.6 L607.7,68.5 L625.7,64.4 L671.4,60.3 L741.2,56.2 L759.1,52.1 L764.1,48.0 L776.0,48.0" fill="none" stroke="#4f8ff7" stroke-width="2.5" stroke-linejoin="round"/>
<circle cx="776.0" cy="48.0" r="4" fill="#4f8ff7"/>
<text x="64.0" y="388" fill="#e6edf3" font-size="13" text-anchor="middle">Apr 18, 2026</text><text x="301.3" y="388" fill="#e6edf3" font-size="13" text-anchor="middle">Jun 15, 2026</text><text x="538.7" y="388" fill="#e6edf3" font-size="13" text-anchor="middle">Aug 12, 2026</text><text x="776.0" y="388" fill="#e6edf3" font-size="13" text-anchor="middle">Oct 09, 2026</text>
</svg>